<svg width="35" height="35" viewBox="0 0 35 35" fill="none" xmlns="http://www.w3.org/2000/svg">
<path d="M1.66648 0.496268C0 1.51492 0 1.46269 0 9.48134C0 15.2799 0.078116 16.8731 0.364541 17.4478C0.937392 18.5187 16.9512 34.3993 17.7844 34.7127C18.201 34.8694 19.0082 35 19.5811 35C20.6487 35 20.7789 34.8955 27.5229 28.1306C34.8137 20.8433 35.3605 20.1642 34.8658 18.4403C34.7096 17.8918 32.0015 14.9925 26.2209 9.19403C21.6121 4.54478 17.524 0.574626 17.1334 0.365671C16.5606 0.0783575 15.0243 -7.45058e-07 9.45204 -7.45058e-07C3.04652 -7.45058e-07 2.39556 0.0522381 1.66648 0.496268ZM6.97836 3.52612C8.85315 5.72015 5.83266 8.82836 3.5673 7.05224C2.26536 6.03358 2.44764 3.78731 3.87976 3.00373C4.81715 2.45522 6.24928 2.6903 6.97836 3.52612ZM18.175 8.38433C20.8049 9.6903 22.1849 11.9366 22.211 14.8881C22.237 16.0634 22.0548 16.9515 21.6902 17.7873L21.1434 19.0149L23.7212 21.5746C26.4293 24.2649 26.7417 24.9179 25.8564 25.9104C24.9711 26.903 24.216 26.5373 21.5079 23.7948L18.9562 21.209L17.7323 21.7575C16.8991 22.1231 16.0138 22.306 14.842 22.2799C11.8997 22.2537 9.66035 20.8694 8.35841 18.2313C5.15566 11.8582 11.8216 5.17164 18.175 8.38433Z" fill="#2767C7"/>
<path d="M12.5507 10.0821C11.379 10.6828 9.94688 12.4328 9.73857 13.5037C8.8793 18.0224 12.8632 21.5746 16.8471 19.8507C18.4615 19.1716 19.0604 18.5448 19.8155 16.8731C20.779 14.653 19.9718 11.9888 17.8887 10.5261C16.5867 9.61193 13.9048 9.40298 12.5507 10.0821Z" fill="#2767C7"/>
</svg>
